<!-- <svg xmlns="http://www.w3.org/2000/svg" width="20" height="20" fill="none"><path fill="#002033" fill-opacity=".8" d="M6.837 1.667h6.326c.928 0 1.265.096 1.604.278.34.182.607.448.788.787.182.34.278.677.278 1.605v13.115a.833.833 0 0 1-1.348.655L10 14.583l-4.485 3.524a.833.833 0 0 1-1.348-.655V4.337c0-.928.096-1.265.278-1.605.181-.339.448-.605.787-.787.34-.182.677-.278 1.605-.278Zm7.33 2.67c0-.355-.016-.578-.041-.707a.294.294 0 0 0-.04-.112.228.228 0 0 0-.104-.103.294.294 0 0 0-.112-.04 4.17 4.17 0 0 0-.707-.042H6.837a4.17 4.17 0 0 0-.707.041.294.294 0 0 0-.112.04.229.229 0 0 0-.103.104.294.294 0 0 0-.04.112 4.17 4.17 0 0 0-.042.707v11.4l3.137-2.464a1.667 1.667 0 0 1 2.06 0l3.137 2.465v-11.4Z"/></svg> -->
<!-- <svg viewBox="0 0 24 24" fill="none" xmlns="http://www.w3.org/2000/svg"><path fill-rule="evenodd" clip-rule="evenodd" d="M16.776 2.484h-7.59c-1.115 0-1.52.116-1.927.334a2.272 2.272 0 0 0-.945.945c-.218.408-.334.812-.334 1.926v15.238a1 1 0 0 0 1.618.786l5.382-4.229 5.383 4.23a1 1 0 0 0 1.617-.787V5.689c0-1.114-.116-1.518-.333-1.926a2.272 2.272 0 0 0-.945-.945c-.408-.218-.812-.334-1.926-.334Zm-5.031 13.428L7.98 18.869V5.69c0-.426.02-.693.05-.849a.353.353 0 0 1 .048-.133.275.275 0 0 1 .125-.125.353.353 0 0 1 .133-.049c.156-.03.423-.049.85-.049h7.59c.426 0 .693.02.849.05.06.011.074.016.133.048a.275.275 0 0 1 .125.125c.032.06.037.073.049.133.03.156.049.423.049.85v13.18l-3.765-2.958a2 2 0 0 0-2.471 0Z" fill="currentColor"></path></svg> -->
<svg viewBox="0 0 24 24" fill="none" xmlns="http://www.w3.org/2000/svg"><path fill-rule="evenodd" clip-rule="evenodd" d="M16.776 2.484h-7.59c-1.115 0-1.52.116-1.927.334a2.272 2.272 0 0 0-.945.945c-.218.408-.334.812-.334 1.926v15.238a1 1 0 0 0 1.618.786l5.382-4.229 5.383 4.23a1 1 0 0 0 1.617-.787V5.689c0-1.114-.116-1.518-.333-1.926a2.272 2.272 0 0 0-.945-.945c-.408-.218-.812-.334-1.926-.334Zm-5.031 13.428L7.98 18.869V5.69c0-.426.02-.693.05-.849a.353.353 0 0 1 .048-.133.275.275 0 0 1 .125-.125.353.353 0 0 1 .133-.049c.156-.03.423-.049.85-.049h7.59c.426 0 .693.02.849.05.06.011.074.016.133.048a.275.275 0 0 1 .125.125c.032.06.037.073.049.133.03.156.049.423.049.85v13.18l-3.765-2.958a2 2 0 0 0-2.471 0Z" fill="rgb(128, 128, 128, 0.3)"></path></svg>
