<!-- <svg viewBox="0 0 24 24" fill="none" xmlns="http://www.w3.org/2000/svg"><path d="M5.98 6.484c0-1.4 0-2.1.273-2.635a2.5 2.5 0 0 1 1.092-1.092c.535-.273 1.235-.273 2.635-.273h6c1.4 0 2.1 0 2.636.273a2.5 2.5 0 0 1 1.092 1.092c.273.535.273 1.235.273 2.635v13.208c0 1.056 0 1.584-.217 1.857a1 1 0 0 1-.778.378c-.35.002-.764-.324-1.594-.976l-4.412-3.467-4.411 3.467c-.83.652-1.245.978-1.594.976a1 1 0 0 1-.778-.378c-.217-.273-.217-.801-.217-1.857V6.484Z" fill="rgba(0, 32, 51, 0.8)"></path></svg> -->
<svg viewBox="0 0 24 24" fill="none" xmlns="http://www.w3.org/2000/svg"><path fill-rule="evenodd" clip-rule="evenodd" d="M16.776 2.484h-7.59c-1.115 0-1.52.116-1.927.334a2.272 2.272 0 0 0-.945.945c-.218.408-.334.812-.334 1.926v15.238a1 1 0 0 0 1.618.786l5.382-4.229 5.383 4.23a1 1 0 0 0 1.617-.787V5.689c0-1.114-.116-1.518-.333-1.926a2.272 2.272 0 0 0-.945-.945c-.408-.218-.812-.334-1.926-.334Zm-5.031 13.428L7.98 18.869V5.69c0-.426.02-.693.05-.849a.353.353 0 0 1 .048-.133.275.275 0 0 1 .125-.125.353.353 0 0 1 .133-.049c.156-.03.423-.049.85-.049h7.59c.426 0 .693.02.849.05.06.011.074.016.133.048a.275.275 0 0 1 .125.125c.032.06.037.073.049.133.03.156.049.423.049.85v13.18l-3.765-2.958a2 2 0 0 0-2.471 0Z" fill="rgb(128, 128, 128, 1)"></path></svg>
